<svg width="258" height="352" fill="none" xmlns="http://www.w3.org/2000/svg"><g opacity=".1"><mask id="a" style="mask-type:alpha" maskUnits="userSpaceOnUse" x="0" y="0" width="258" height="352"><path d="M1.01.5H234c12.979 0 23.5 10.521 23.5 23.5v327.022H50.51c-27.337 0-49.5-22.162-49.5-49.5V.5z" fill="url(#paint0_linear)" stroke="#6246E5"/></mask><g mask="url(#a)" stroke="#6246E5"><path d="M323.158 178.32c0 50.713-40.094 91.803-89.527 91.803s-89.527-41.09-89.527-91.803c0-50.713 40.094-91.803 89.527-91.803s89.527 41.09 89.527 91.803z"/><path d="M326.712 168.604c0 56.75-44.868 102.734-100.188 102.734-55.321 0-100.188-45.984-100.188-102.734 0-56.751 44.867-102.734 100.188-102.734 55.32 0 100.188 45.983 100.188 102.734z"/><path d="M330.266 160.709c0 62.117-49.111 112.451-109.665 112.451-60.554 0-109.665-50.334-109.665-112.451 0-62.116 49.111-112.45 109.665-112.45 60.554 0 109.665 50.334 109.665 112.45z"/><path d="M332.635 149.171c0 66.812-52.823 120.952-117.957 120.952-65.134 0-117.956-54.14-117.956-120.952 0-66.811 52.822-120.951 117.956-120.951s117.957 54.14 117.957 120.95z"/><path d="M335.004 137.937c0 71.34-56.403 129.15-125.953 129.15-69.549 0-125.952-57.81-125.952-129.15 0-71.339 56.403-129.15 125.952-129.15 69.55 0 125.953 57.811 125.953 129.15z"/><path d="M337.965 125.185c0 78.382-61.971 141.902-138.39 141.902-76.419 0-138.39-63.52-138.39-141.902 0-78.382 61.971-141.902 138.39-141.902 76.419 0 138.39 63.52 138.39 141.902z"/></g></g><defs><linearGradient id="paint0_linear" x1="183.132" y1="9.862" x2="-1.414" y2="350.479" gradientUnits="userSpaceOnUse"><stop stop-color="#747DEF"/><stop offset="1" stop-color="#5E3BE1"/></linearGradient></defs></svg>