<svg width="469" height="361" fill="none" xmlns="http://www.w3.org/2000/svg"><g opacity=".1"><mask id="a" style="mask-type:alpha" maskUnits="userSpaceOnUse" x="0" y="0" width="469" height="361"><path transform="rotate(90 467.662 .5)" fill="url(#paint0_linear)" stroke="#6246E5" d="M467.662.5h360v467.162h-360z"/></mask><g mask="url(#a)" stroke="#6246E5"><path d="M230.673 453.92c-67.605 0-122.431-56.273-122.431-125.718 0-69.444 54.826-125.718 122.431-125.718 67.604 0 122.431 56.274 122.431 125.718 0 69.445-54.827 125.718-122.431 125.718z"/><path d="M243.613 458.902c-75.645 0-136.989-62.965-136.989-140.665 0-77.699 61.344-140.664 136.989-140.664 75.644 0 136.988 62.965 136.988 140.664 0 77.7-61.344 140.665-136.988 140.665z"/><path d="M254.127 463.885c-82.792 0-149.929-68.914-149.929-153.951 0-85.037 67.138-153.951 149.929-153.951s149.928 68.914 149.928 153.951c0 85.037-67.137 153.951-149.928 153.951z"/><path d="M269.493 467.206c-89.044 0-161.251-74.118-161.251-165.576 0-91.457 72.207-165.576 161.251-165.576 89.045 0 161.252 74.119 161.252 165.576 0 91.458-72.207 165.576-161.252 165.576z"/><path d="M284.455 470.527c-95.074 0-172.169-79.137-172.169-176.786s77.095-176.786 172.169-176.786c95.074 0 172.17 79.137 172.17 176.786s-77.096 176.786-172.17 176.786z"/><path d="M301.439 474.68c-104.454 0-189.153-86.945-189.153-194.224 0-107.28 84.699-194.225 189.153-194.225s189.154 86.945 189.154 194.225c0 107.279-84.7 194.224-189.154 194.224z"/></g></g><defs><linearGradient id="paint0_linear" x1="724.198" y1="13.135" x2="485.431" y2="477.05" gradientUnits="userSpaceOnUse"><stop stop-color="#747DEF"/><stop offset="1" stop-color="#5E3BE1"/></linearGradient></defs></svg>