<svg width="709" height="719" fill="none" xmlns="http://www.w3.org/2000/svg"><path d="M22.307 217c-40.4-68.8-16.833-208.667 0-270l679.5-101 64.5 271.5-38.5 601c-78.667 1-254.1-6.5-326.5-44.5-90.5-47.5-49.5-124-124.5-164s-32-145.5-58-185.5-146-21.5-196.5-107.5z" fill="#FFF1DA"/><path d="M555.197 289.868a8.961 8.961 0 00-3.705 1.232c-2.954 1.714-4.568 4.545-3.605 6.322.962 1.776 4.136 1.826 7.089.112a9.304 9.304 0 002.948-2.629c.368-.528.399-1.249.078-1.839l-1.25-2.308c-.318-.591-.928-.94-1.555-.89zm-7.614-26.999a6.487 6.487 0 00-2.686.894c-2.141 1.243-3.312 3.295-2.615 4.582.697 1.288 2.999 1.323 5.14.081a6.755 6.755 0 002.138-1.908 1.28 1.28 0 00.056-1.332l-.905-1.672c-.231-.428-.673-.681-1.128-.645z" fill="#D5D6DB"/><path d="M535.06 262.424a.822.822 0 00-.631.082l-5.02 2.906c-.42.242-.562.806-.316 1.261.056.104.13.197.218.273l13.447 11.688 16.74-9.69-24.438-6.52z" fill="#029BC5"/><path d="M590.344 265.928l-46.817 28.736-28.118 9.069-14.525 1.148-1.792-3.521 78.098-46.73a13.49 13.49 0 017.652-1.937 12.94 12.94 0 013.484.688 10.84 10.84 0 012.868 1.475c.999.723 2.845 1.08 3.502 2.311.002-.002 1.687 5.438-4.352 8.761z" fill="#E1E6E9"/><path d="M542.994 287.47l-18.782 34.926c-.231.496-.043 1.119.419 1.392.284.168.62.17.894.006l5.101-3.05a8.114 8.114 0 002.506-2.366l37.488-48.332-27.626 17.424zm-51.358-.55a1.13 1.13 0 00-1.073.018l-4.106 2.339c-.56.319-.747 1.059-.419 1.655.062.113.141.216.233.305l12.586 12.159 12.106-6.723-19.327-9.753zm10.514 17.304l-6.051 9.69a.34.34 0 00.074.439.267.267 0 00.313.02l3.949-2.371a.308.308 0 00.08-.073l8.955-12.096-7.32 4.391zm85.94-51.284a13.596 13.596 0 00-3.516-.652c-1.06 1.641-1.688 3.569-1.822 5.59.005.411.321.753.705.764a.64.64 0 00.339-.086l7.188-4.209a11.121 11.121 0 00-2.894-1.407z" fill="#029BC5"/><path d="M572.003 261.019l4.513-2.485 4.843 8.522-4.513 2.484-4.843-8.521z" fill="#D5D6DB"/><path d="M568.887 264.641c-.546.301-.727 1.01-.405 1.585l.523.931c.341.564 1.051.762 1.586.443.509-.305.68-.974.391-1.53l-.523-.932c-.322-.574-1.026-.796-1.572-.497zm-4.353 2.773c-.546.3-.728 1.01-.405 1.585l.522.931c.341.564 1.051.762 1.586.442.51-.305.681-.973.391-1.53l-.522-.931c-.323-.574-1.027-.797-1.572-.497zm-4.355 2.773c-.546.301-.727 1.01-.404 1.584l.523.931c.34.564 1.05.762 1.586.442.509-.304.68-.973.39-1.53l-.522-.931c-.323-.574-1.027-.797-1.573-.496zm-4.354 2.772c-.545.301-.726 1.01-.404 1.584l.523.932c.341.564 1.051.762 1.586.442.509-.305.68-.973.391-1.53l-.523-.931c-.323-.575-1.027-.797-1.573-.497zm-4.354 2.773c-.545.301-.726 1.009-.403 1.583l.522.931c.323.574 1.026.795 1.572.495.546-.3.727-1.008.404-1.582l-.522-.931c-.322-.574-1.025-.796-1.571-.497l-.002.001zm-4.353 2.772c-.546.301-.727 1.009-.404 1.583l.523.931c.322.574 1.026.796 1.571.496.546-.3.727-1.009.405-1.582l-.523-.931c-.322-.574-1.025-.797-1.571-.498l-.001.001zm-4.354 2.773c-.546.3-.726 1.009-.404 1.583l.523.931c.323.573 1.027.794 1.572.493.544-.3.725-1.007.404-1.58l-.523-.93c-.322-.575-1.026-.797-1.572-.497zm-4.354 2.772c-.545.301-.726 1.009-.404 1.583l.523.931c.323.574 1.027.794 1.572.494.544-.3.725-1.007.404-1.58l-.523-.931c-.322-.574-1.026-.797-1.572-.497zm-4.353 2.772c-.546.301-.727 1.01-.404 1.584l.522.931c.323.573 1.027.794 1.572.493.544-.3.725-1.007.404-1.58l-.522-.931c-.323-.574-1.027-.796-1.572-.497zm-4.356 2.774c-.545.3-.726 1.008-.404 1.582l.001.001.522.931c.323.574 1.027.794 1.572.494.544-.3.725-1.007.404-1.58l-.523-.931c-.322-.574-1.025-.797-1.572-.497zm-4.352 2.771c-.546.3-.727 1.009-.405 1.583l.001.001.523.931c.323.573 1.027.794 1.572.493.544-.3.725-1.007.404-1.58l-.523-.931c-.322-.574-1.026-.796-1.572-.497z" fill="#3A556A"/><path d="M83.205 242.868A8.95 8.95 0 0079.5 244.1c-2.954 1.714-4.568 4.545-3.605 6.321.962 1.777 4.136 1.827 7.089.112a9.294 9.294 0 002.948-2.629c.368-.528.398-1.249.078-1.838l-1.25-2.309c-.318-.591-.928-.939-1.555-.889zm-7.613-26.999a6.504 6.504 0 00-2.687.893c-2.141 1.243-3.312 3.295-2.615 4.583.697 1.287 3 1.323 5.14.08a6.75 6.75 0 002.138-1.907c.266-.383.288-.905.056-1.333l-.905-1.671c-.23-.428-.673-.682-1.127-.645z" fill="#D5D6DB"/><path d="M63.068 215.423a.831.831 0 00-.631.082l-5.02 2.906c-.42.243-.562.807-.316 1.261.056.104.13.197.218.273l13.447 11.689 16.74-9.69-24.438-6.521z" fill="#029BC5"/><path d="M118.352 218.927l-46.817 28.736-28.118 9.07-14.525 1.147-1.792-3.52 78.098-46.731a13.497 13.497 0 017.652-1.936c1.176.065 2.347.297 3.484.688 1.008.337 1.974.834 2.868 1.474.999.723 2.845 1.08 3.502 2.311.002-.001 1.687 5.439-4.352 8.761z" fill="#E1E6E9"/><path d="M71.002 240.47L52.22 275.396c-.23.496-.043 1.119.42 1.392.283.167.62.169.893.005l5.1-3.049a8.12 8.12 0 002.507-2.367l37.488-48.331-27.626 17.424zm-51.357-.551a1.13 1.13 0 00-1.074.018l-4.106 2.34c-.56.318-.747 1.059-.42 1.655.063.113.142.216.234.305l12.586 12.159 12.106-6.723-19.326-9.754zm10.513 17.304l-6.051 9.69a.34.34 0 00.074.439.265.265 0 00.313.021l3.949-2.372a.27.27 0 00.08-.073l8.955-12.096-7.32 4.391zm85.94-51.284a13.681 13.681 0 00-3.516-.652c-1.06 1.642-1.688 3.569-1.822 5.591.005.41.321.752.705.764a.649.649 0 00.339-.086l7.188-4.209a11.156 11.156 0 00-2.894-1.408z" fill="#029BC5"/><path d="M100.011 214.019l4.513-2.485 4.843 8.521-4.513 2.485-4.843-8.521z" fill="#D5D6DB"/><path d="M96.895 217.641c-.546.3-.727 1.01-.405 1.585l.523.931c.34.564 1.05.762 1.586.442.51-.305.68-.973.39-1.53l-.522-.931c-.322-.574-1.026-.797-1.572-.497zm-4.354 2.772c-.545.301-.727 1.01-.404 1.585l.522.931c.341.564 1.051.762 1.586.443.51-.305.68-.974.391-1.531l-.522-.931c-.323-.574-1.027-.796-1.573-.497zm-4.355 2.773c-.545.302-.726 1.01-.403 1.584l.522.932c.341.564 1.051.762 1.586.442.51-.305.68-.973.391-1.53l-.522-.931c-.323-.575-1.027-.797-1.574-.497zm-4.353 2.773c-.545.301-.726 1.01-.404 1.584l.523.931c.34.564 1.05.762 1.586.442.51-.304.68-.973.39-1.53l-.522-.931c-.323-.574-1.027-.797-1.573-.496zm-4.353 2.772c-.546.301-.727 1.01-.404 1.584l.522.93c.323.574 1.026.796 1.572.496.546-.3.727-1.008.404-1.582l-.522-.931c-.322-.574-1.025-.797-1.572-.497zm-4.354 2.773c-.546.301-.727 1.009-.404 1.583l.523.931c.322.574 1.025.795 1.571.495.546-.3.727-1.008.405-1.582l-.523-.931c-.322-.574-1.025-.796-1.571-.497l-.001.001zm-4.354 2.772c-.546.301-.726 1.009-.404 1.583l.523.931c.323.574 1.027.794 1.572.494.544-.3.725-1.007.404-1.58l-.523-.931c-.322-.574-1.026-.797-1.572-.497zm-4.354 2.773c-.546.3-.726 1.009-.404 1.583l.523.931c.323.573 1.027.794 1.572.493.544-.3.725-1.007.404-1.58l-.523-.931c-.322-.574-1.026-.796-1.572-.496zm-4.353 2.772c-.546.301-.727 1.009-.404 1.583l.523.931c.322.574 1.026.794 1.571.494.544-.3.725-1.007.404-1.58l-.523-.931c-.322-.574-1.026-.797-1.572-.497zm-4.355 2.773c-.546.3-.727 1.009-.405 1.583v.001l.523.931c.323.573 1.027.794 1.572.493.544-.3.725-1.007.404-1.58l-.523-.931c-.322-.574-1.025-.796-1.572-.497zm-4.353 2.772c-.546.3-.727 1.008-.404 1.582v.001l.523.931c.323.573 1.027.794 1.572.494.544-.301.725-1.007.404-1.58l-.523-.931c-.322-.574-1.026-.797-1.572-.497z" fill="#3A556A"/></svg>