<svg width="709" height="719" viewBox="0 0 709 719" fill="none" xmlns="http://www.w3.org/2000/svg">
<path d="M22.3069 217C-18.0931 148.2 5.4736 8.33333 22.3069 -53L701.807 -154L766.307 117.5L727.807 718.5C649.14 719.5 473.707 712 401.307 674C310.807 626.5 351.807 550 276.807 510C201.807 470 244.807 364.5 218.807 324.5C192.807 284.5 72.8069 303 22.3069 217Z" fill="#FFF1DA"/>
<path d="M555.197 289.868C553.885 290.002 552.624 290.421 551.492 291.1C548.538 292.814 546.924 295.645 547.887 297.422C548.849 299.198 552.023 299.248 554.976 297.534C556.126 296.887 557.129 295.993 557.924 294.905C558.292 294.377 558.323 293.656 558.002 293.066L556.752 290.758C556.434 290.167 555.824 289.818 555.197 289.868Z" fill="#D5D6DB"/>
<path d="M547.583 262.869C546.632 262.966 545.718 263.27 544.897 263.763C542.756 265.006 541.585 267.058 542.282 268.345C542.979 269.633 545.281 269.668 547.422 268.426C548.256 267.957 548.983 267.307 549.56 266.518C549.826 266.136 549.848 265.613 549.616 265.186L548.711 263.514C548.48 263.086 548.038 262.833 547.583 262.869Z" fill="#D5D6DB"/>
<path d="M535.06 262.424C534.844 262.366 534.619 262.395 534.429 262.506L529.409 265.412C528.989 265.654 528.847 266.218 529.093 266.673C529.149 266.777 529.223 266.87 529.311 266.946L542.758 278.634L559.498 268.944L535.06 262.424Z" fill="#029BC5"/>
<path d="M590.344 265.928L543.527 294.664L515.409 303.733L500.884 304.881L499.092 301.36L577.19 254.63C579.517 253.229 582.157 252.561 584.842 252.693C586.018 252.759 587.189 252.99 588.326 253.381C589.334 253.719 590.3 254.215 591.194 254.856C592.193 255.579 594.039 255.936 594.696 257.167C594.698 257.165 596.383 262.605 590.344 265.928Z" fill="#E1E6E9"/>
<path d="M542.994 287.47L524.212 322.396C523.981 322.892 524.169 323.515 524.631 323.788C524.915 323.956 525.251 323.958 525.525 323.794L530.626 320.744C531.607 320.157 532.46 319.352 533.132 318.378L570.62 270.046L542.994 287.47Z" fill="#029BC5"/>
<path d="M491.636 286.92C491.29 286.745 490.89 286.752 490.563 286.938L486.457 289.277C485.897 289.596 485.71 290.336 486.038 290.932C486.1 291.045 486.179 291.148 486.271 291.237L498.857 303.396L510.963 296.673L491.636 286.92Z" fill="#029BC5"/>
<path d="M502.15 304.224L496.099 313.914C496.01 314.053 496.043 314.249 496.173 314.353C496.267 314.427 496.39 314.435 496.486 314.373L500.435 312.002C500.465 311.983 500.493 311.958 500.515 311.929L509.47 299.833L502.15 304.224Z" fill="#029BC5"/>
<path d="M588.09 252.94C586.942 252.567 585.761 252.348 584.574 252.288C583.514 253.929 582.886 255.857 582.752 257.878C582.757 258.289 583.073 258.631 583.457 258.642C583.576 258.645 583.693 258.616 583.796 258.556L590.984 254.347C590.082 253.735 589.107 253.261 588.09 252.94Z" fill="#029BC5"/>
<path d="M572.003 261.019L576.516 258.534L581.359 267.056L576.846 269.54L572.003 261.019Z" fill="#D5D6DB"/>
<path d="M568.887 264.641C568.341 264.942 568.16 265.651 568.482 266.226L569.005 267.157C569.346 267.721 570.056 267.919 570.591 267.6C571.1 267.295 571.271 266.626 570.982 266.07L570.459 265.138C570.137 264.564 569.433 264.342 568.887 264.641Z" fill="#3A556A"/>
<path d="M564.534 267.414C563.988 267.714 563.806 268.424 564.129 268.999L564.651 269.93C564.992 270.494 565.702 270.692 566.237 270.372C566.747 270.067 566.918 269.399 566.628 268.842L566.106 267.911C565.783 267.337 565.079 267.114 564.534 267.414Z" fill="#3A556A"/>
<path d="M560.179 270.187C559.633 270.488 559.452 271.197 559.775 271.771L560.298 272.702C560.638 273.266 561.348 273.464 561.884 273.144C562.393 272.84 562.564 272.171 562.274 271.614L561.752 270.683C561.429 270.109 560.725 269.886 560.179 270.187Z" fill="#3A556A"/>
<path d="M555.825 272.959C555.28 273.26 555.099 273.969 555.421 274.543L555.944 275.475C556.285 276.039 556.995 276.237 557.53 275.917C558.039 275.612 558.21 274.944 557.921 274.387L557.398 273.456C557.075 272.881 556.371 272.659 555.825 272.959Z" fill="#3A556A"/>
<path d="M551.471 275.732C550.926 276.033 550.745 276.741 551.068 277.315L551.59 278.246C551.913 278.82 552.616 279.041 553.162 278.741C553.708 278.441 553.889 277.733 553.566 277.159L553.044 276.228C552.722 275.654 552.019 275.432 551.473 275.731C551.472 275.731 551.472 275.731 551.471 275.732Z" fill="#3A556A"/>
<path d="M547.118 278.504C546.572 278.805 546.391 279.513 546.714 280.087L547.237 281.018C547.559 281.592 548.263 281.814 548.808 281.514C549.354 281.214 549.535 280.505 549.213 279.932L548.69 279.001C548.368 278.427 547.665 278.204 547.119 278.503C547.118 278.504 547.118 278.504 547.118 278.504Z" fill="#3A556A"/>
<path d="M542.764 281.277C542.218 281.577 542.038 282.286 542.36 282.86L542.883 283.791C543.206 284.364 543.91 284.585 544.455 284.284C544.999 283.984 545.18 283.277 544.859 282.704L544.336 281.774C544.014 281.199 543.31 280.977 542.764 281.277Z" fill="#3A556A"/>
<path d="M538.41 284.049C537.865 284.35 537.684 285.058 538.006 285.632L538.529 286.563C538.852 287.137 539.556 287.357 540.101 287.057C540.645 286.757 540.826 286.05 540.505 285.477L539.982 284.546C539.66 283.972 538.956 283.749 538.41 284.049Z" fill="#3A556A"/>
<path d="M534.057 286.821C533.511 287.122 533.33 287.831 533.653 288.405L534.175 289.336C534.498 289.909 535.202 290.13 535.747 289.829C536.291 289.529 536.472 288.822 536.151 288.249L535.629 287.318C535.306 286.744 534.602 286.522 534.057 286.821Z" fill="#3A556A"/>
<path d="M529.701 289.595C529.156 289.895 528.975 290.603 529.297 291.177L529.298 291.178L529.82 292.109C530.143 292.683 530.847 292.903 531.392 292.603C531.936 292.303 532.117 291.596 531.796 291.023L531.273 290.092C530.951 289.518 530.248 289.295 529.701 289.595Z" fill="#3A556A"/>
<path d="M525.349 292.366C524.803 292.666 524.622 293.375 524.944 293.949L524.945 293.95L525.468 294.881C525.791 295.454 526.495 295.675 527.04 295.374C527.584 295.074 527.765 294.367 527.444 293.794L526.921 292.863C526.599 292.289 525.895 292.067 525.349 292.366Z" fill="#3A556A"/>
<path d="M83.2048 242.868C81.8931 243.001 80.6319 243.421 79.4996 244.1C76.5464 245.814 74.9323 248.645 75.8946 250.421C76.8569 252.198 80.0308 252.248 82.984 250.533C84.134 249.887 85.1373 248.992 85.9324 247.904C86.3 247.376 86.3305 246.655 86.0103 246.066L84.7602 243.757C84.442 243.166 83.8316 242.818 83.2048 242.868Z" fill="#D5D6DB"/>
<path d="M75.5916 215.869C74.6404 215.966 73.7258 216.27 72.9047 216.762C70.7638 218.005 69.5926 220.057 70.2898 221.345C70.987 222.632 73.2894 222.668 75.43 221.425C76.2638 220.956 76.9913 220.307 77.568 219.518C77.8342 219.135 77.8561 218.613 77.6241 218.185L76.7189 216.514C76.4884 216.086 76.0461 215.832 75.5916 215.869Z" fill="#D5D6DB"/>
<path d="M63.068 215.423C62.8522 215.366 62.6271 215.395 62.4368 215.505L57.4165 218.411C56.9965 218.654 56.855 219.218 57.1009 219.672C57.1572 219.776 57.2313 219.869 57.3192 219.945L70.7658 231.634L87.5061 221.944L63.068 215.423Z" fill="#029BC5"/>
<path d="M118.352 218.927L71.5353 247.663L43.4165 256.733L28.8917 257.88L27.1002 254.36L105.198 207.629C107.525 206.229 110.165 205.561 112.85 205.693C114.026 205.758 115.197 205.99 116.334 206.381C117.342 206.718 118.308 207.215 119.202 207.855C120.201 208.578 122.047 208.935 122.704 210.166C122.706 210.165 124.391 215.605 118.352 218.927Z" fill="#E1E6E9"/>
<path d="M71.0017 240.47L52.2204 275.396C51.9891 275.892 52.1768 276.515 52.6392 276.788C52.923 276.955 53.2593 276.957 53.5327 276.793L58.6338 273.744C59.6149 273.157 60.468 272.351 61.1402 271.377L98.6283 223.046L71.0017 240.47Z" fill="#029BC5"/>
<path d="M19.6445 239.919C19.2981 239.744 18.8983 239.751 18.5713 239.937L14.4649 242.277C13.9053 242.595 13.7178 243.336 14.0459 243.932C14.1083 244.045 14.187 244.148 14.2792 244.237L26.8647 256.396L38.971 249.673L19.6445 239.919Z" fill="#029BC5"/>
<path d="M30.1581 257.223L24.1066 266.913C24.0177 267.052 24.0512 267.249 24.1812 267.352C24.275 267.427 24.398 267.435 24.4941 267.373L28.4427 265.001C28.4734 264.983 28.5007 264.958 28.5228 264.928L37.4777 252.832L30.1581 257.223Z" fill="#029BC5"/>
<path d="M116.098 205.939C114.95 205.567 113.769 205.348 112.582 205.287C111.522 206.929 110.894 208.856 110.76 210.878C110.765 211.288 111.081 211.63 111.465 211.642C111.584 211.645 111.701 211.615 111.804 211.556L118.992 207.347C118.09 206.735 117.115 206.261 116.098 205.939Z" fill="#029BC5"/>
<path d="M100.011 214.019L104.524 211.534L109.367 220.055L104.854 222.54L100.011 214.019Z" fill="#D5D6DB"/>
<path d="M96.8951 217.641C96.3491 217.941 96.1676 218.651 96.4903 219.226L97.013 220.157C97.3538 220.721 98.0638 220.919 98.5989 220.599C99.1082 220.294 99.2792 219.626 98.9898 219.069L98.4671 218.138C98.1448 217.564 97.4412 217.341 96.8951 217.641Z" fill="#3A556A"/>
<path d="M92.5415 220.413C91.9955 220.714 91.814 221.423 92.1366 221.998L92.6593 222.929C93.0001 223.493 93.7101 223.691 94.2453 223.372C94.7546 223.067 94.9255 222.398 94.6362 221.841L94.1135 220.91C93.7909 220.336 93.0873 220.114 92.5415 220.413Z" fill="#3A556A"/>
<path d="M88.1865 223.186C87.6411 223.488 87.4604 224.196 87.7828 224.77L88.3055 225.702C88.6463 226.266 89.3563 226.464 89.8915 226.144C90.4007 225.839 90.5717 225.171 90.2824 224.614L89.7596 223.683C89.437 223.108 88.7328 222.886 88.1865 223.186Z" fill="#3A556A"/>
<path d="M83.833 225.959C83.2876 226.26 83.1069 226.969 83.4292 227.543L83.952 228.474C84.2928 229.038 85.0028 229.236 85.5379 228.916C86.0472 228.612 86.2182 227.943 85.9288 227.386L85.4061 226.455C85.0833 225.881 84.379 225.658 83.833 225.959Z" fill="#3A556A"/>
<path d="M79.4794 228.731C78.9339 229.032 78.7531 229.741 79.0756 230.315L79.5983 231.245C79.9206 231.819 80.6242 232.041 81.1699 231.741C81.7156 231.441 81.8966 230.733 81.5744 230.159L81.0516 229.228C80.73 228.654 80.0266 228.431 79.4805 228.731C79.4801 228.731 79.4798 228.731 79.4794 228.731Z" fill="#3A556A"/>
<path d="M75.1257 231.504C74.5802 231.805 74.3995 232.513 74.7219 233.087L75.2447 234.018C75.5669 234.592 76.2705 234.813 76.8162 234.513C77.3619 234.213 77.543 233.505 77.2207 232.931L76.6979 232C76.3763 231.426 75.6729 231.204 75.1269 231.503C75.1264 231.503 75.1259 231.503 75.1257 231.504Z" fill="#3A556A"/>
<path d="M70.7718 234.276C70.2263 234.577 70.0456 235.285 70.368 235.859L70.8908 236.79C71.2138 237.364 71.9177 237.584 72.4627 237.284C73.0068 236.984 73.1875 236.277 72.8666 235.704L72.3439 234.773C72.0217 234.199 71.318 233.976 70.7718 234.276Z" fill="#3A556A"/>
<path d="M66.418 237.049C65.8725 237.349 65.6918 238.058 66.0142 238.632L66.537 239.563C66.8599 240.136 67.5638 240.357 68.1088 240.056C68.6529 239.756 68.8337 239.049 68.5128 238.476L67.99 237.545C67.6678 236.971 66.9642 236.749 66.418 237.049Z" fill="#3A556A"/>
<path d="M62.0645 239.821C61.519 240.122 61.3383 240.83 61.6607 241.404L62.1835 242.335C62.5064 242.909 63.2103 243.129 63.7553 242.829C64.2994 242.529 64.4801 241.822 64.1592 241.249L63.6365 240.318C63.3141 239.744 62.6104 239.521 62.0645 239.821Z" fill="#3A556A"/>
<path d="M57.7095 242.594C57.1638 242.894 56.9827 243.603 57.305 244.177L57.3056 244.178L57.8284 245.109C58.1514 245.682 58.8553 245.903 59.4003 245.602C59.9444 245.302 60.1251 244.595 59.8042 244.022L59.2814 243.091C58.9592 242.517 58.2556 242.295 57.7095 242.594Z" fill="#3A556A"/>
<path d="M53.357 245.366C52.8113 245.666 52.6302 246.374 52.9525 246.948L52.9532 246.949L53.476 247.88C53.7989 248.453 54.5028 248.674 55.0479 248.374C55.592 248.073 55.7727 247.367 55.4518 246.794L54.929 245.863C54.6066 245.289 53.9029 245.066 53.357 245.366Z" fill="#3A556A"/>
</svg>
